<?xml version="1.0" encoding="UTF-8"?>
<svg xmlns="http://www.w3.org/2000/svg" xmlns:xlink="http://www.w3.org/1999/xlink" viewBox="0 0 64 64" width="64px" height="64px">
<g id="surface81942344">
<path style=" stroke:none;fill-rule:nonzero;fill:rgb(100%,100%,100%);fill-opacity:1;" d="M 32 10.667969 C 32 10.667969 15.320312 10.667969 11.160156 11.78125 C 8.867188 12.394531 7.0625 14.203125 6.449219 16.496094 C 5.332031 20.65625 5.332031 32 5.332031 32 C 5.332031 32 5.332031 43.34375 6.449219 47.503906 C 7.0625 49.800781 8.867188 51.605469 11.160156 52.21875 C 15.320312 53.332031 32 53.332031 32 53.332031 C 32 53.332031 48.679688 53.332031 52.839844 52.21875 C 55.132812 51.605469 56.9375 49.796875 57.550781 47.503906 C 58.667969 43.34375 58.667969 32 58.667969 32 C 58.667969 32 58.667969 20.65625 57.550781 16.496094 C 56.9375 14.203125 55.132812 12.394531 52.839844 11.78125 C 48.679688 10.667969 32 10.667969 32 10.667969 Z M 32 16 C 39.683594 16 49.308594 16.355469 51.457031 16.933594 C 51.910156 17.050781 52.277344 17.421875 52.402344 17.875 C 53.042969 20.269531 53.332031 27.578125 53.332031 32 C 53.332031 36.421875 53.042969 43.726562 52.402344 46.125 C 52.28125 46.574219 51.910156 46.945312 51.457031 47.066406 C 49.3125 47.644531 39.683594 48 32 48 C 24.316406 48 14.695312 47.644531 12.542969 47.066406 C 12.089844 46.949219 11.722656 46.578125 11.597656 46.125 C 10.957031 43.730469 10.667969 36.421875 10.667969 32 C 10.667969 27.578125 10.957031 20.269531 11.597656 17.871094 C 11.71875 17.421875 12.089844 17.050781 12.542969 16.933594 C 14.6875 16.355469 24.316406 16 32 16 Z M 26.667969 22.761719 L 26.667969 41.238281 L 42.667969 32 Z M 26.667969 22.761719 "/>
</g>
</svg>
