<?xml version="1.0" encoding="UTF-8"?>
<svg xmlns="http://www.w3.org/2000/svg" xmlns:xlink="http://www.w3.org/1999/xlink" viewBox="0 0 250 250" width="250px" height="250px">
<g id="surface81050397">
<path style=" stroke:none;fill-rule:nonzero;fill:rgb(25.490198%,72.156864%,51.372552%);fill-opacity:1;" d="M 200 0 C 172.675781 0 150.390625 21.992188 150 49.21875 C 150 49.472656 150 49.746094 150 50 C 150 68.4375 159.980469 84.453125 174.84375 93.125 C 182.226562 97.441406 190.839844 100 200 100 C 227.578125 100 250 77.578125 250 50 C 250 22.421875 227.578125 0 200 0 Z M 140.3125 54.21875 L 89.21875 79.84375 C 101.113281 90.15625 108.925781 105 109.84375 121.71875 L 161.5625 95.78125 C 149.492188 85.644531 141.503906 70.878906 140.3125 54.21875 Z M 50 75 C 22.421875 75 0 97.421875 0 125 C 0 152.578125 22.421875 175 50 175 C 60.253906 175 69.707031 171.875 77.65625 166.5625 C 91.074219 157.597656 100 142.363281 100 125 C 100 107.050781 90.449219 91.328125 76.25 82.5 C 68.59375 77.734375 59.648438 75 50 75 Z M 109.84375 128.28125 C 108.925781 144.980469 101.25 159.980469 89.375 170.3125 L 140.3125 195.78125 C 141.503906 179.121094 149.355469 164.375 161.40625 154.21875 Z M 200 150 C 189.6875 150 180.15625 153.222656 172.1875 158.59375 C 158.847656 167.578125 150 182.714844 150 200 C 150 200.078125 150 200.078125 150 200.15625 C 149.785156 200.175781 149.589844 200.292969 149.375 200.3125 L 150 200.625 C 150.332031 227.910156 172.636719 250 200 250 C 227.578125 250 250 227.578125 250 200 C 250 172.421875 227.578125 150 200 150 Z M 200 150 "/>
</g>
</svg>
